<svg id="Layer_1" data-name="Layer 1" xmlns="http://www.w3.org/2000/svg" viewBox="0 0 536.06 216.27"><defs><style>.cls-1,.cls-4{fill:#fff;}.cls-2,.cls-3{fill:none;}.cls-2,.cls-3,.cls-4{stroke:#fff;stroke-miterlimit:10;}.cls-2,.cls-4{stroke-width:3px;}.cls-3{stroke-width:2px;}</style></defs><polygon class="cls-1" points="0 58.31 0 94.4 34.39 94.4 34.39 216.27 85.4 216.27 85.4 94.4 120.12 94.4 120.12 58.31 0 58.31"/><path class="cls-1" d="M146.72,78.75c-3-10.75,6.65-21.39,23.64-22.37,15.75-.43,27.08,8.45,26.69,19.22-1.23,9.67-12.32,16.93-25.78,17.13C159.84,92.39,150.37,88.08,146.72,78.75Z" transform="translate(0 1.95)"/><rect class="cls-1" x="147.37" y="107.41" width="48.35" height="108.86"/><polygon class="cls-1" points="239.08 58.31 289.43 58.31 289.43 132.62 337.77 58.31 390.61 58.31 339.1 139.01 388.45 216.27 333.12 216.27 289.43 150.6 289.43 216.27 239.08 216.27 239.08 58.31"/><path class="cls-1" d="M412.16,102.67h48.35v70c0,4.12,2.17,7.58,6.29,10.42,8.19,3.73,20.92.93,20.92-11.19V102.62h48.34l-.19,62.76c-.28,31.28-23.64,49.4-61.83,48.47-37.28,0-60.76-14.31-61.92-44.26Z" transform="translate(0 1.95)"/><path class="cls-2" d="M414.36,36.94,513.56,0l4.81,14.49c0,.1-12.48,4-9.59,19.28,6.16,15.24,19.65,10.09,19.65,10.09l4.93,14.46-99.4,37-4.85-14.59s13.33-4.74,9.26-20c-5.89-14.43-19.27-9.22-19.27-9.22Z" transform="translate(0 1.95)"/><polygon class="cls-3" points="483.6 28.18 489.84 25.86 492.22 32.55 485.85 34.8 483.6 28.18"/><polygon class="cls-3" points="487.93 41.2 494.17 38.87 496.55 45.56 490.18 47.82 487.93 41.2"/><polygon class="cls-3" points="492.49 54.31 498.73 51.99 501.11 58.68 494.74 60.93 492.49 54.31"/><line class="cls-4" x1="465.54" y1="19.83" x2="485.88" y2="77.94"/></svg>